# xmcd
#
# Track frame offsets:
#	150
#	19575
#	37625
#	54237
#	76262
#	97562
#	110662
#	130037
#	149012
#	166650
#	182675
#	201550
#
# Disc length: 2947 seconds
#
# Revision: 0
# Processed by: cddbd v1.5PL3 Copyright (c) Steve Scherf et al.
# Submitted via: dBpowerAMP V4.0
#
DISCID=8d0b810c
DTITLE=Various Artist - 中國風之四
DYEAR=1995
DGENRE=Country
TTITLE0=九月九的酒
TTITLE1=中國
TTITLE2=花好月圓
TTITLE3=中華民謠
TTITLE4=誰能告訴我
TTITLE5=火火的歌謠
TTITLE6=天上有沒有北大荒
TTITLE7=笑臉
TTITLE8=霧裡看花
TTITLE9=睡在我上鋪的兄弟
TTITLE10=心會跟我一起走
TTITLE11=父老鄉親
EXTD=
EXTT0=
EXTT1=
EXTT2=
EXTT3=
EXTT4=
EXTT5=
EXTT6=
EXTT7=
EXTT8=
EXTT9=
EXTT10=
EXTT11=
PLAYORDER=
